# This file uses centimeters as units for non-parametric coordinates.

mtllib shuriken.mtl
g default
v 0.155402 1.808929 -0.038762
v 0.144159 1.808929 -0.109745
v 0.155402 2.647792 -0.038762
v 0.144159 2.647792 -0.109745
v 0.111532 1.808929 -0.173779
v 0.111532 2.647792 -0.173779
v 0.060714 1.808929 -0.224597
v 0.060714 2.647792 -0.224597
v -0.003320 1.808929 -0.257224
v -0.003320 2.647792 -0.257224
v -0.074302 1.808929 -0.268466
v -0.074302 2.647792 -0.268466
v -0.145285 1.808929 -0.257224
v -0.145285 2.647792 -0.257224
v -0.209319 1.808929 -0.224597
v -0.209319 2.647792 -0.224597
v -0.260136 1.808929 -0.173779
v -0.260136 2.647792 -0.173779
v -0.292763 1.808929 -0.109745
v -0.292763 2.647792 -0.109745
v -0.304006 1.808929 -0.038762
v -0.304006 2.647792 -0.038762
v -0.292763 1.808929 0.032220
v -0.292763 2.647792 0.032220
v -0.260136 1.808929 0.096254
v -0.260136 2.647792 0.096254
v -0.209319 1.808929 0.147072
v -0.209319 2.647792 0.147072
v -0.145285 1.808929 0.179699
v -0.145285 2.647792 0.179699
v -0.074302 1.808929 0.190942
v -0.074302 2.647792 0.190942
v -0.003320 1.808929 0.179699
v -0.003320 2.647792 0.179699
v 0.060714 1.808929 0.147072
v 0.060714 2.647792 0.147072
v 0.111532 1.808929 0.096254
v 0.111532 2.647792 0.096254
v 0.144159 1.808929 0.032220
v 0.144159 2.647792 0.032220
v 0.385105 2.647792 -0.038762
v 0.362620 2.647792 -0.180727
v 0.297366 2.647792 -0.308795
v 0.195731 2.647792 -0.410431
v 0.067663 2.647792 -0.475685
v -0.074302 2.647792 -0.498170
v -0.216267 2.647792 -0.475685
v -0.344335 2.647792 -0.410431
v -0.445971 2.647792 -0.308795
v -0.511225 2.647792 -0.180727
v -0.533710 2.647792 -0.038762
v -0.511225 2.647792 0.103202
v -0.445971 2.647792 0.231271
v -0.344335 2.647792 0.332906
v -0.216267 2.647792 0.398160
v -0.074302 2.647792 0.420645
v 0.067663 2.647792 0.398160
v 0.195731 2.647792 0.332906
v 0.297367 2.647792 0.231271
v 0.362621 2.647792 0.103202
v 0.385105 1.808929 -0.038762
v 0.362620 1.808929 -0.180727
v 0.297366 1.808929 -0.308795
v 0.195731 1.808929 -0.410431
v 0.067663 1.808929 -0.475685
v -0.074302 1.808929 -0.498170
v -0.216267 1.808929 -0.475685
v -0.344335 1.808929 -0.410431
v -0.445971 1.808929 -0.308795
v -0.511225 1.808929 -0.180727
v -0.533710 1.808929 -0.038762
v -0.511225 1.808929 0.103202
v -0.445971 1.808929 0.231271
v -0.344335 1.808929 0.332906
v -0.216267 1.808929 0.398160
v -0.074302 1.808929 0.420645
v 0.067663 1.808929 0.398160
v 0.195731 1.808929 0.332906
v 0.297367 1.808929 0.231271
v 0.362621 1.808929 0.103202
v 0.072769 1.808929 -0.038762
v 0.065571 1.808929 -0.084210
v 0.072769 2.647792 -0.038762
v 0.065571 2.647792 -0.084210
v 0.044681 1.808929 -0.125209
v 0.044681 2.647792 -0.125209
v 0.012144 1.808929 -0.157745
v 0.012144 2.647792 -0.157745
v -0.028855 1.808929 -0.178635
v -0.028855 2.647792 -0.178635
v -0.074302 1.808929 -0.185833
v -0.074302 2.647792 -0.185833
v -0.119750 1.808929 -0.178635
v -0.119750 2.647792 -0.178635
v -0.160748 1.808929 -0.157745
v -0.160748 2.647792 -0.157745
v -0.193285 1.808929 -0.125209
v -0.193285 2.647792 -0.125209
v -0.214175 1.808929 -0.084210
v -0.214175 2.647792 -0.084210
v -0.221373 1.808929 -0.038762
v -0.221373 2.647792 -0.038762
v -0.214175 1.808929 0.006685
v -0.214175 2.647792 0.006685
v -0.193285 1.808929 0.047684
v -0.193285 2.647792 0.047684
v -0.160748 1.808929 0.080221
v -0.160748 2.647792 0.080221
v -0.119750 1.808929 0.101111
v -0.119750 2.647792 0.101111
v -0.074302 1.808929 0.108309
v -0.074302 2.647792 0.108309
v -0.028855 1.808929 0.101111
v -0.028855 2.647792 0.101111
v 0.012144 1.808929 0.080221
v 0.012144 2.647792 0.080221
v 0.044681 1.808929 0.047684
v 0.044681 2.647792 0.047684
v 0.065571 1.808929 0.006685
v 0.065571 2.647792 0.006685
v -0.792127 2.219004 0.688504
v -0.756688 2.220107 -0.707972
v -0.071328 2.642554 -0.021094
v -0.068313 1.826023 -0.017107
v -2.536790 2.223207 0.008549
v 0.612036 2.219051 0.691647
v -0.024810 2.223207 2.453974
v 0.657156 2.218742 -0.723365
v -0.756688 2.219399 -0.707970
v -0.144169 2.221035 -2.472556
v 2.392200 2.223207 -0.016540
vt 0.050000 1.000000
vt 0.000000 1.000000
vt 0.000000 0.750000
vt 0.050000 0.750000
vt 0.100000 1.000000
vt 0.100000 0.750000
vt 0.150000 1.000000
vt 0.150000 0.750000
vt 0.200000 1.000000
vt 0.200000 0.750000
vt 0.250000 1.000000
vt 0.250000 0.750000
vt 0.300000 1.000000
vt 0.300000 0.750000
vt 0.350000 1.000000
vt 0.350000 0.750000
vt 0.400000 1.000000
vt 0.400000 0.750000
vt 0.450000 1.000000
vt 0.450000 0.750000
vt 0.500000 1.000000
vt 0.500000 0.750000
vt 0.550000 1.000000
vt 0.550000 0.750000
vt 0.600000 1.000000
vt 0.600000 0.750000
vt 0.650000 1.000000
vt 0.650000 0.750000
vt 0.700000 1.000000
vt 0.700000 0.750000
vt 0.750000 1.000000
vt 0.750000 0.750000
vt 0.800000 1.000000
vt 0.800000 0.750000
vt 0.850000 1.000000
vt 0.850000 0.750000
vt 0.900000 1.000000
vt 0.900000 0.750000
vt 0.950000 1.000000
vt 0.950000 0.750000
vt 1.000000 1.000000
vt 1.000000 0.750000
vt 0.050000 0.750000
vt 0.000000 0.750000
vt 0.000000 0.500000
vt 0.050000 0.500000
vt 0.100000 0.750000
vt 0.100000 0.500000
vt 0.150000 0.750000
vt 0.150000 0.500000
vt 0.200000 0.750000
vt 0.200000 0.500000
vt 0.250000 0.750000
vt 0.250000 0.500000
vt 0.300000 0.750000
vt 0.300000 0.500000
vt 0.350000 0.750000
vt 0.350000 0.500000
vt 0.400000 0.750000
vt 0.400000 0.500000
vt 0.450000 0.750000
vt 0.450000 0.500000
vt 0.500000 0.750000
vt 0.500000 0.500000
vt 0.550000 0.750000
vt 0.550000 0.500000
vt 0.600000 0.750000
vt 0.600000 0.500000
vt 0.650000 0.750000
vt 0.650000 0.500000
vt 0.700000 0.750000
vt 0.700000 0.500000
vt 0.750000 0.750000
vt 0.750000 0.500000
vt 0.800000 0.750000
vt 0.800000 0.500000
vt 0.850000 0.750000
vt 0.850000 0.500000
vt 0.900000 0.750000
vt 0.900000 0.500000
vt 0.950000 0.750000
vt 0.950000 0.500000
vt 1.000000 0.750000
vt 1.000000 0.500000
vt 0.000000 0.250000
vt 0.050000 0.250000
vt 0.100000 0.250000
vt 0.150000 0.250000
vt 0.200000 0.250000
vt 0.250000 0.250000
vt 0.300000 0.250000
vt 0.350000 0.250000
vt 0.400000 0.250000
vt 0.450000 0.250000
vt 0.500000 0.250000
vt 0.550000 0.250000
vt 0.600000 0.250000
vt 0.650000 0.250000
vt 0.700000 0.250000
vt 0.750000 0.250000
vt 0.800000 0.250000
vt 0.850000 0.250000
vt 0.900000 0.250000
vt 0.950000 0.250000
vt 1.000000 0.250000
vt 0.000000 0.000000
vt 0.050000 0.000000
vt 0.100000 0.000000
vt 0.150000 0.000000
vt 0.200000 0.000000
vt 0.250000 0.000000
vt 0.300000 0.000000
vt 0.350000 0.000000
vt 0.400000 0.000000
vt 0.450000 0.000000
vt 0.500000 0.000000
vt 0.550000 0.000000
vt 0.600000 0.000000
vt 0.650000 0.000000
vt 0.700000 0.000000
vt 0.750000 0.000000
vt 0.800000 0.000000
vt 0.850000 0.000000
vt 0.900000 0.000000
vt 0.950000 0.000000
vt 1.000000 0.000000
vt 0.050000 1.000000
vt 0.000000 1.000000
vt 0.100000 1.000000
vt 0.150000 1.000000
vt 0.200000 1.000000
vt 0.250000 1.000000
vt 0.300000 1.000000
vt 0.350000 1.000000
vt 0.400000 1.000000
vt 0.450000 1.000000
vt 0.500000 1.000000
vt 0.550000 1.000000
vt 0.600000 1.000000
vt 0.650000 1.000000
vt 0.700000 1.000000
vt 0.750000 1.000000
vt 0.800000 1.000000
vt 0.850000 1.000000
vt 0.900000 1.000000
vt 0.950000 1.000000
vt 1.000000 1.000000
vt 1.022807 0.338595
vt 0.725877 0.418972
vt 0.875000 0.500000
vt 0.875000 0.375000
vt 0.875000 0.250000
vt 1.021079 0.315837
vt 1.000875 0.284370
vt 1.009877 0.359397
vt 0.743104 0.401055
vt 0.875000 0.500000
vt 0.875000 0.375000
vt 0.738178 0.388538
vt 0.875000 0.250000
vt 1.013470 0.445356
vt 0.733334 0.371248
vt 0.875000 0.500000
vt 0.875000 0.375000
vt 0.875000 0.250000
vt 1.002527 0.389272
vt 0.736314 0.390362
vt 0.875000 0.500000
vt 0.875000 0.375000
vt 0.875000 0.250000
vn -0.951057 0.000000 0.309017
vn -1.000000 0.000000 0.000001
vn -1.000000 0.000000 0.000001
vn -0.951057 0.000000 0.309017
vn -0.809017 0.000000 0.587785
vn -0.809017 0.000000 0.587785
vn -0.587785 0.000000 0.809017
vn -0.587785 0.000000 0.809017
vn -0.309017 0.000000 0.951057
vn -0.309017 0.000000 0.951057
vn -0.000000 0.000000 1.000000
vn -0.000000 0.000000 1.000000
vn 0.309017 0.000000 0.951057
vn 0.309017 0.000000 0.951057
vn 0.587785 0.000000 0.809017
vn 0.587785 0.000000 0.809017
vn 0.809017 0.000000 0.587785
vn 0.809017 0.000000 0.587785
vn 0.951057 0.000000 0.309017
vn 0.951057 0.000000 0.309017
vn 1.000000 0.000000 0.000000
vn 1.000000 0.000000 0.000000
vn 0.951057 0.000000 -0.309017
vn 0.951057 0.000000 -0.309017
vn 0.809017 0.000000 -0.587785
vn 0.809017 0.000000 -0.587785
vn 0.587785 0.000000 -0.809017
vn 0.587785 0.000000 -0.809017
vn 0.309017 0.000000 -0.951057
vn 0.309017 0.000000 -0.951057
vn 0.000000 0.000000 -1.000000
vn 0.000000 0.000000 -1.000000
vn -0.309016 0.000000 -0.951057
vn -0.309016 0.000000 -0.951057
vn -0.587785 0.000000 -0.809017
vn -0.587785 0.000000 -0.809017
vn -0.809017 0.000000 -0.587785
vn -0.809017 0.000000 -0.587785
vn -0.951057 0.000000 -0.309016
vn -0.951057 0.000000 -0.309016
vn 0.000000 1.000000 -0.000000
vn 0.000000 1.000000 0.000000
vn 0.000000 1.000000 0.000000
vn 0.000000 1.000000 0.000000
vn 0.000000 1.000000 -0.000002
vn 0.000000 1.000000 -0.000001
vn 0.000000 1.000000 -0.000001
vn 0.000000 1.000000 -0.000001
vn 0.000000 1.000000 0.000000
vn 0.000000 1.000000 0.000000
vn 0.000000 1.000000 0.000001
vn 0.000000 1.000000 0.000001
vn 0.000000 1.000000 0.000001
vn 0.000000 1.000000 0.000001
vn 0.000000 1.000000 0.000000
vn 0.000000 1.000000 0.000000
vn 0.000000 1.000000 0.000000
vn 0.000000 1.000000 0.000000
vn 0.000000 1.000000 -0.000000
vn 0.000000 1.000000 0.000000
vn 0.000000 1.000000 0.000000
vn 0.000000 1.000000 0.000000
vn 0.000000 1.000000 0.000001
vn 0.000000 1.000000 0.000001
vn 0.000000 1.000000 0.000001
vn 0.000000 1.000000 0.000001
vn 0.000000 1.000000 0.000000
vn 0.000000 1.000000 -0.000000
vn 0.000000 1.000000 -0.000000
vn 0.000000 1.000000 -0.000000
vn 0.000000 1.000000 0.000001
vn 0.000000 1.000000 0.000001
vn 0.000000 1.000000 -0.000000
vn 0.000000 1.000000 -0.000000
vn 0.000000 1.000000 -0.000001
vn 0.000000 1.000000 -0.000001
vn 0.000000 1.000000 0.000001
vn 0.000000 1.000000 0.000001
vn 0.000000 1.000000 0.000001
vn 0.000000 1.000000 0.000001
vn 0.951057 0.000000 -0.309017
vn 1.000000 0.000000 -0.000001
vn 1.000000 0.000000 -0.000001
vn 0.951057 0.000000 -0.309017
vn 0.809017 0.000000 -0.587785
vn 0.809017 0.000000 -0.587785
vn 0.587785 0.000000 -0.809017
vn 0.587785 0.000000 -0.809017
vn 0.309017 0.000000 -0.951057
vn 0.309017 0.000000 -0.951057
vn 0.000000 0.000000 -1.000000
vn 0.000000 0.000000 -1.000000
vn -0.309017 0.000000 -0.951057
vn -0.309017 0.000000 -0.951057
vn -0.587785 0.000000 -0.809017
vn -0.587785 0.000000 -0.809017
vn -0.809017 0.000000 -0.587785
vn -0.809017 0.000000 -0.587785
vn -0.951056 0.000000 -0.309017
vn -0.951056 0.000000 -0.309017
vn -1.000000 0.000000 0.000000
vn -1.000000 0.000000 0.000000
vn -0.951057 0.000000 0.309017
vn -0.951057 0.000000 0.309017
vn -0.809017 0.000000 0.587785
vn -0.809017 0.000000 0.587785
vn -0.587785 0.000000 0.809017
vn -0.587785 0.000000 0.809017
vn -0.309017 0.000000 0.951056
vn -0.309017 0.000000 0.951056
vn -0.000000 0.000000 1.000000
vn -0.000000 0.000000 1.000000
vn 0.309017 0.000000 0.951057
vn 0.309017 0.000000 0.951057
vn 0.587785 0.000000 0.809017
vn 0.587785 0.000000 0.809017
vn 0.809017 0.000000 0.587785
vn 0.809017 0.000000 0.587785
vn 0.951057 0.000000 0.309016
vn 0.951057 0.000000 0.309016
vn 0.000000 -1.000000 0.000000
vn 0.000000 -1.000000 0.000000
vn 0.000000 -1.000000 0.000000
vn 0.000000 -1.000000 0.000000
vn 0.000000 -1.000000 0.000000
vn 0.000000 -1.000000 0.000000
vn 0.000000 -1.000000 0.000000
vn 0.000000 -1.000000 0.000000
vn 0.000000 -1.000000 0.000000
vn 0.000000 -1.000000 0.000001
vn 0.000000 -1.000000 0.000000
vn 0.000000 -1.000000 0.000001
vn 0.000000 -1.000000 0.000000
vn 0.000000 -1.000000 0.000000
vn 0.000000 -1.000000 0.000000
vn 0.000000 -1.000000 -0.000000
vn 0.000000 -1.000000 0.000000
vn 0.000000 -1.000000 -0.000000
vn 0.000000 -1.000000 0.000000
vn 0.000000 -1.000000 0.000000
vn 0.000000 -1.000000 0.000000
vn 0.000000 -1.000000 0.000000
vn 0.000000 -1.000000 0.000000
vn 0.000000 -1.000000 0.000000
vn 0.000000 -1.000000 0.000000
vn 0.000000 -1.000000 0.000000
vn 0.000000 -1.000000 0.000000
vn 0.000000 -1.000000 0.000000
vn 0.000000 -1.000000 -0.000000
vn 0.000000 -1.000000 -0.000000
vn 0.000000 -1.000000 -0.000000
vn 0.000000 -1.000000 -0.000000
vn 0.000000 -1.000000 0.000001
vn 0.000000 -1.000000 0.000001
vn 0.000000 -1.000000 0.000001
vn 0.000000 -1.000000 0.000001
vn 0.000000 -1.000000 0.000000
vn 0.000000 -1.000000 0.000000
vn 0.000000 -1.000000 0.000000
vn 0.000000 -1.000000 0.000000
vn 0.000000 -1.000000 0.000000
vn 0.000000 -1.000000 0.000001
vn 0.000000 1.000000 -0.000002
vn 0.000000 1.000000 0.000000
vn 0.000000 -1.000000 -0.000001
vn 0.000000 1.000000 -0.000005
vn 0.000000 -1.000000 -0.000000
vn 0.000000 1.000000 -0.000002
vn 0.000000 -1.000000 0.000002
vn 0.000000 1.000000 0.000000
vn 0.000000 -1.000000 0.000002
vn 0.000000 1.000000 0.000001
vn 0.000000 -1.000000 0.000001
vn 0.000000 1.000000 0.000001
vn 0.000000 -1.000000 -0.000001
vn 0.000000 1.000000 0.000002
vn 0.000000 -1.000000 -0.000001
vn 0.000000 1.000000 0.000000
vn 0.000000 -1.000000 0.000000
vn 0.000000 1.000000 -0.000002
vn 0.000000 -1.000000 0.000000
vn 0.000000 1.000000 0.000000
vn 0.000000 -1.000000 0.000000
vn 0.000000 1.000000 0.000002
vn 0.000000 -1.000000 0.000001
vn 0.000000 1.000000 0.000002
vn 0.000000 -1.000000 -0.000000
vn 0.000000 1.000000 0.000000
vn 0.000000 -1.000000 -0.000001
vn 0.000000 1.000000 -0.000001
vn 0.000000 -1.000000 -0.000001
vn 0.000000 1.000000 -0.000000
vn 0.000000 -1.000000 -0.000000
vn 0.000000 1.000000 0.000001
vn 0.000000 -1.000000 0.000000
vn 0.000000 1.000000 0.000000
vn 0.000000 -1.000000 0.000001
vn 0.000000 1.000000 0.000000
vn 0.000000 -1.000000 0.000002
vn 0.000000 1.000000 -0.000002
vn 0.515634 -0.856719 0.012409
vn 0.515634 -0.856719 0.012409
vn 0.515634 -0.856719 0.012409
vn -0.373401 -0.008745 -0.927629
vn -0.373396 0.003070 -0.927667
vn -0.158496 0.903734 -0.397673
vn 0.486894 0.873364 0.013046
vn 0.486894 0.873364 0.013046
vn 0.486894 0.873364 0.013046
vn -0.363003 0.021329 0.931544
vn -0.363135 -0.002886 0.931732
vn -0.149837 0.908510 0.390075
vn -0.144242 -0.919997 0.364417
vn -0.151238 -0.915923 -0.371769
vn -0.000469 -1.000000 -0.000296
vn -0.000469 -1.000000 -0.000296
vn -0.000469 -1.000000 -0.000296
vn -0.000469 -1.000000 -0.000296
vn 0.001174 -0.859194 -0.511649
vn 0.001174 -0.859194 -0.511649
vn 0.001174 -0.859194 -0.511649
vn -0.917119 -0.001975 0.398608
vn -0.917095 0.008793 0.398572
vn -0.376841 0.912070 0.161613
vn 0.001058 0.874105 -0.485736
vn 0.001058 0.874105 -0.485736
vn 0.001058 0.874105 -0.485736
vn 0.940264 0.022098 0.339728
vn 0.940477 0.001929 0.339853
vn 0.407429 0.901635 0.145105
vn 0.381786 -0.913568 0.140119
vn -0.350722 -0.923625 0.154631
vn 0.004841 -0.853933 0.520360
vn 0.004841 -0.853933 0.520360
vn 0.004841 -0.853933 0.520360
vn 0.909131 -0.004217 -0.416489
vn 0.909012 0.017411 -0.416406
vn 0.369591 0.913860 -0.168116
vn 0.006185 0.871243 0.490813
vn 0.006185 0.871243 0.490813
vn 0.006185 0.871243 0.490813
vn -0.944691 0.005477 -0.327916
vn -0.944691 -0.005090 -0.327922
vn -0.412482 0.899719 -0.142706
vn -0.412482 0.899719 -0.142706
vn -0.386361 -0.912475 -0.134593
vn -0.386361 -0.912475 -0.134593
vn 0.345405 -0.924810 -0.159446
vn 0.000469 1.000000 0.000296
vn 0.000469 1.000000 0.000296
vn 0.000469 1.000000 0.000296
vn 0.000469 1.000000 0.000296
vn -0.514431 -0.857378 -0.016216
vn -0.514431 -0.857378 -0.016216
vn -0.514431 -0.857378 -0.016216
vn 0.369639 0.002364 0.929172
vn 0.369496 0.023503 0.928935
vn 0.153697 0.907177 0.391671
vn -0.487807 0.872809 -0.015745
vn -0.487807 0.872809 -0.015745
vn -0.487807 0.872809 -0.015745
vn 0.377253 0.006754 -0.926086
vn 0.377282 -0.004151 -0.926089
vn 0.155412 0.908790 -0.387231
vn 0.148792 -0.921237 -0.359420
vn 0.148156 -0.918335 0.367030
s 1
g polySurface3
usemtl initialShadingGroup
f 82/1/1 81/2/2 83/3/3 84/4/4
f 85/5/5 82/1/1 84/4/4 86/6/6
f 87/7/7 85/5/5 86/6/6 88/8/8
f 89/9/9 87/7/7 88/8/8 90/10/10
f 91/11/11 89/9/9 90/10/10 92/12/12
f 93/13/13 91/11/11 92/12/12 94/14/14
f 95/15/15 93/13/13 94/14/14 96/16/16
f 97/17/17 95/15/15 96/16/16 98/18/18
f 99/19/19 97/17/17 98/18/18 100/20/20
f 101/21/21 99/19/19 100/20/20 102/22/22
f 103/23/23 101/21/21 102/22/22 104/24/24
f 105/25/25 103/23/23 104/24/24 106/26/26
f 107/27/27 105/25/25 106/26/26 108/28/28
f 109/29/29 107/27/27 108/28/28 110/30/30
f 111/31/31 109/29/29 110/30/30 112/32/32
f 113/33/33 111/31/31 112/32/32 114/34/34
f 115/35/35 113/33/33 114/34/34 116/36/36
f 117/37/37 115/35/35 116/36/36 118/38/38
f 119/39/39 117/37/37 118/38/38 120/40/40
f 81/41/2 119/39/39 120/40/40 83/42/3
s 2
f 4/43/41 3/44/42 41/45/43 42/46/44
f 6/47/45 4/43/41 42/46/44 43/48/46
f 8/49/47 6/47/45 43/48/46 44/50/48
f 10/51/49 8/49/47 44/50/48 45/52/50
f 12/53/51 10/51/49 45/52/50 46/54/52
f 14/55/53 12/53/51 46/54/52 47/56/54
f 16/57/55 14/55/53 47/56/54 48/58/56
f 18/59/57 16/57/55 48/58/56 49/60/58
f 20/61/59 18/59/57 49/60/58 50/62/60
f 22/63/61 20/61/59 50/62/60 51/64/62
f 24/65/63 22/63/61 51/64/62 52/66/64
f 26/67/65 24/65/63 52/66/64 53/68/66
f 28/69/67 26/67/65 53/68/66 54/70/68
f 30/71/69 28/69/67 54/70/68 55/72/70
f 32/73/71 30/71/69 55/72/70 56/74/72
f 34/75/73 32/73/71 56/74/72 57/76/74
f 36/77/75 34/75/73 57/76/74 58/78/76
f 38/79/77 36/77/75 58/78/76 59/80/78
f 40/81/79 38/79/77 59/80/78 60/82/80
f 3/83/42 40/81/79 60/82/80 41/84/43
s 3
f 42/46/81 41/45/82 61/85/83 62/86/84
f 43/48/85 42/46/81 62/86/84 63/87/86
f 44/50/87 43/48/85 63/87/86 64/88/88
f 45/52/89 44/50/87 64/88/88 65/89/90
f 46/54/91 45/52/89 65/89/90 66/90/92
f 47/56/93 46/54/91 66/90/92 67/91/94
f 48/58/95 47/56/93 67/91/94 68/92/96
f 49/60/97 48/58/95 68/92/96 69/93/98
f 50/62/99 49/60/97 69/93/98 70/94/100
f 51/64/101 50/62/99 70/94/100 71/95/102
f 52/66/103 51/64/101 71/95/102 72/96/104
f 53/68/105 52/66/103 72/96/104 73/97/106
f 54/70/107 53/68/105 73/97/106 74/98/108
f 55/72/109 54/70/107 74/98/108 75/99/110
f 56/74/111 55/72/109 75/99/110 76/100/112
f 57/76/113 56/74/111 76/100/112 77/101/114
f 58/78/115 57/76/113 77/101/114 78/102/116
f 59/80/117 58/78/115 78/102/116 79/103/118
f 60/82/119 59/80/117 79/103/118 80/104/120
f 41/84/82 60/82/119 80/104/120 61/105/83
s 4
f 62/86/121 61/85/122 1/106/123 2/107/124
f 63/87/125 62/86/121 2/107/124 5/108/126
f 64/88/127 63/87/125 5/108/126 7/109/128
f 65/89/129 64/88/127 7/109/128 9/110/130
f 66/90/131 65/89/129 9/110/130 11/111/132
f 67/91/133 66/90/131 11/111/132 13/112/134
f 68/92/135 67/91/133 13/112/134 15/113/136
f 69/93/137 68/92/135 15/113/136 17/114/138
f 70/94/139 69/93/137 17/114/138 19/115/140
f 71/95/141 70/94/139 19/115/140 21/116/142
f 72/96/143 71/95/141 21/116/142 23/117/144
f 73/97/145 72/96/143 23/117/144 25/118/146
f 74/98/147 73/97/145 25/118/146 27/119/148
f 75/99/149 74/98/147 27/119/148 29/120/150
f 76/100/151 75/99/149 29/120/150 31/121/152
f 77/101/153 76/100/151 31/121/152 33/122/154
f 78/102/155 77/101/153 33/122/154 35/123/156
f 79/103/157 78/102/155 35/123/156 37/124/158
f 80/104/159 79/103/157 37/124/158 39/125/160
f 61/105/122 80/104/159 39/125/160 1/126/123
f 2/127/124 1/128/123 81/2/161 82/1/162
s 2
f 3/44/42 4/43/41 84/4/163 83/3/164
s 4
f 5/129/126 2/127/124 82/1/162 85/5/165
s 2
f 4/43/41 6/47/45 86/6/166 84/4/163
s 4
f 7/130/128 5/129/126 85/5/165 87/7/167
s 2
f 6/47/45 8/49/47 88/8/168 86/6/166
s 4
f 9/131/130 7/130/128 87/7/167 89/9/169
s 2
f 8/49/47 10/51/49 90/10/170 88/8/168
s 4
f 11/132/132 9/131/130 89/9/169 91/11/171
s 2
f 10/51/49 12/53/51 92/12/172 90/10/170
s 4
f 13/133/134 11/132/132 91/11/171 93/13/173
s 2
f 12/53/51 14/55/53 94/14/174 92/12/172
s 4
f 15/134/136 13/133/134 93/13/173 95/15/175
s 2
f 14/55/53 16/57/55 96/16/176 94/14/174
s 4
f 17/135/138 15/134/136 95/15/175 97/17/177
s 2
f 16/57/55 18/59/57 98/18/178 96/16/176
s 4
f 19/136/140 17/135/138 97/17/177 99/19/179
s 2
f 18/59/57 20/61/59 100/20/180 98/18/178
s 4
f 21/137/142 19/136/140 99/19/179 101/21/181
s 2
f 20/61/59 22/63/61 102/22/182 100/20/180
s 4
f 23/138/144 21/137/142 101/21/181 103/23/183
s 2
f 22/63/61 24/65/63 104/24/184 102/22/182
s 4
f 25/139/146 23/138/144 103/23/183 105/25/185
s 2
f 24/65/63 26/67/65 106/26/186 104/24/184
s 4
f 27/140/148 25/139/146 105/25/185 107/27/187
s 2
f 26/67/65 28/69/67 108/28/188 106/26/186
s 4
f 29/141/150 27/140/148 107/27/187 109/29/189
s 2
f 28/69/67 30/71/69 110/30/190 108/28/188
s 4
f 31/142/152 29/141/150 109/29/189 111/31/191
s 2
f 30/71/69 32/73/71 112/32/192 110/30/190
s 4
f 33/143/154 31/142/152 111/31/191 113/33/193
s 2
f 32/73/71 34/75/73 114/34/194 112/32/192
s 4
f 35/144/156 33/143/154 113/33/193 115/35/195
s 2
f 34/75/73 36/77/75 116/36/196 114/34/194
s 4
f 37/145/158 35/144/156 115/35/195 117/37/197
s 2
f 36/77/75 38/79/77 118/38/198 116/36/196
s 4
f 39/146/160 37/145/158 117/37/197 119/39/199
s 2
f 38/79/77 40/81/79 120/40/200 118/38/198
s 4
f 1/147/123 39/146/160 119/39/199 81/41/161
s 2
f 40/81/79 3/83/42 83/42/164 120/40/200
s off
f 121/148/201 122/149/202 123/150/203
s 5
f 122/149/204 125/151/205 123/150/206
s off
f 122/149/207 121/148/208 124/152/209
s 6
f 125/151/210 121/148/211 123/150/212
f 121/148/211 125/151/210 124/152/213
s 5
f 125/151/205 122/149/204 124/152/214
s off
f 126/153/215 121/148/216 122/154/217 128/155/218
f 126/153/219 121/156/220 123/157/221
s 7
f 121/156/222 127/158/223 123/157/224
s off
f 121/159/225 126/153/226 124/160/227
s 8
f 127/158/228 126/153/229 123/157/230
f 126/153/229 127/158/228 124/160/231
s 7
f 127/158/223 121/156/222 124/160/232
s off
f 122/161/233 128/162/234 123/163/235
s 9
f 128/162/236 130/164/237 123/163/238
s off
f 128/162/239 122/154/240 124/165/241
s 10
f 130/164/242 129/166/243 122/161/244 123/163/245
f 122/154/246 129/166/243 130/164/242 124/165/247
s 9
f 130/164/237 128/162/236 124/165/248
s off
f 126/167/249 128/162/250 122/149/251 121/156/252
f 128/155/253 126/167/254 123/168/255
s 11
f 126/167/256 131/169/257 123/168/258
s off
f 126/167/259 128/155/260 124/170/261
s 12
f 131/169/262 128/155/263 123/168/264
f 128/155/263 131/169/262 124/170/265
s 11
f 131/169/257 126/167/256 124/170/266
